<svg xmlns="http://www.w3.org/2000/svg" viewBox="0 0 24 24" fill="none" stroke="black" stroke-width="2" stroke-linecap="round" stroke-linejoin="round" class="lucide lucide-ghost">
  <path d="M9 22v-2c0-1.1.9-2 2-2h2c1.1 0 2 .9 2 2v2" />
  <path d="M16 22v-2.16A5.98 5.98 0 0 0 14 10h-4a5.98 5.98 0 0 0-2 9.84V22" />
  <path d="M10 5a4 4 0 0 1 8 0v5h-8V5Z" />
  <path d="M14.5 5a.5.5 0 1 1-1 0 .5.5 0 0 1 1 0" />
  <path d="M10.5 5a.5.5 0 1 1-1 0 .5.5 0 0 1 1 0" />
  <path d="M9 22a7.003 7.003 0 0 1 1.75-4.67" />
  <path d="M13.25 17.33A7.003 7.003 0 0 1 15 22" />
</svg>
